<svg width="18" height="16" viewBox="0 0 18 16" fill="none" xmlns="http://www.w3.org/2000/svg">
<path d="M10.7667 2.33335L12.2917 4.00002H15.6667V14H2.33333V4.00002H5.70833L7.23333 2.33335H10.7667ZM11.5 0.666687H6.5L4.975 2.33335H2.33333C1.41666 2.33335 0.666664 3.08335 0.666664 4.00002V14C0.666664 14.9167 1.41666 15.6667 2.33333 15.6667H15.6667C16.5833 15.6667 17.3333 14.9167 17.3333 14V4.00002C17.3333 3.08335 16.5833 2.33335 15.6667 2.33335H13.025L11.5 0.666687ZM9 6.50002C10.375 6.50002 11.5 7.62502 11.5 9.00002C11.5 10.375 10.375 11.5 9 11.5C7.625 11.5 6.5 10.375 6.5 9.00002C6.5 7.62502 7.625 6.50002 9 6.50002ZM9 4.83335C6.7 4.83335 4.83333 6.70002 4.83333 9.00002C4.83333 11.3 6.7 13.1667 9 13.1667C11.3 13.1667 13.1667 11.3 13.1667 9.00002C13.1667 6.70002 11.3 4.83335 9 4.83335Z" fill="#DEDEDE"/>
</svg>
