<svg width="24" height="24" viewBox="0 0 24 24" fill="none" xmlns="http://www.w3.org/2000/svg">
<path d="M10.2999 14.7784C10.1534 14.7784 10.0069 14.7244 9.89131 14.6088C9.25923 13.9767 8.91235 13.1365 8.91235 12.2501C8.91235 10.4078 10.4078 8.91235 12.2501 8.91235C13.1365 8.91235 13.9767 9.25923 14.6088 9.89131C14.7167 9.99923 14.7784 10.1457 14.7784 10.2999C14.7784 10.454 14.7167 10.6005 14.6088 10.7084L10.7084 14.6088C10.5928 14.7244 10.4463 14.7784 10.2999 14.7784ZM12.2501 10.0686C11.0476 10.0686 10.0686 11.0476 10.0686 12.2501C10.0686 12.6355 10.1688 13.0055 10.3538 13.3292L13.3292 10.3538C13.0055 10.1688 12.6355 10.0686 12.2501 10.0686Z" fill="#A4A9B2"/>
<path d="M7.31667 17.2679C7.18563 17.2679 7.04688 17.2217 6.93896 17.1292C6.11417 16.4277 5.37417 15.5644 4.74208 14.5623C3.925 13.2904 3.925 11.2169 4.74208 9.93729C6.62292 6.99271 9.35938 5.29688 12.25 5.29688C13.9458 5.29688 15.6185 5.88271 17.0831 6.985C17.3375 7.17771 17.3915 7.54 17.1988 7.79437C17.006 8.04875 16.6438 8.10271 16.3894 7.91C15.1252 6.95417 13.6915 6.45312 12.25 6.45312C9.76021 6.45312 7.37833 7.94854 5.71333 10.5617C5.13521 11.4635 5.13521 13.036 5.71333 13.9379C6.29146 14.8398 6.95438 15.6183 7.68667 16.2504C7.92563 16.4585 7.95646 16.8208 7.74833 17.0675C7.64042 17.1985 7.47854 17.2679 7.31667 17.2679Z" fill="#A4A9B2"/>
<path d="M12.25 19.2029C11.2248 19.2029 10.2227 18.9947 9.25914 18.5862C8.96623 18.4629 8.82748 18.1237 8.95081 17.8308C9.07414 17.5379 9.41331 17.3991 9.70623 17.5224C10.5233 17.8693 11.3789 18.0466 12.2423 18.0466C14.7321 18.0466 17.1139 16.5512 18.7789 13.9381C19.3571 13.0362 19.3571 11.4637 18.7789 10.5618C18.54 10.1841 18.2779 9.82182 18.0004 9.48266C17.8 9.23599 17.8385 8.8737 18.0852 8.66557C18.3319 8.46516 18.6941 8.49599 18.9023 8.75036C19.2029 9.12036 19.4958 9.5212 19.7579 9.93745C20.575 11.2093 20.575 13.2829 19.7579 14.5624C17.8771 17.507 15.1406 19.2029 12.25 19.2029Z" fill="#A4A9B2"/>
<path d="M12.7819 15.5414C12.5121 15.5414 12.2655 15.3486 12.2115 15.0711C12.1498 14.7551 12.358 14.4545 12.674 14.4005C13.5219 14.2464 14.2311 13.5372 14.3853 12.6893C14.4469 12.3732 14.7476 12.1728 15.0636 12.2268C15.3796 12.2884 15.5878 12.5891 15.5261 12.9051C15.2794 14.2387 14.2157 15.2947 12.8898 15.5414C12.8513 15.5337 12.8205 15.5414 12.7819 15.5414Z" fill="#A4A9B2"/>
<path d="M4.54165 20.5365C4.39519 20.5365 4.24874 20.4825 4.13311 20.3669C3.90957 20.1433 3.90957 19.7733 4.13311 19.5498L9.89123 13.7917C10.1148 13.5681 10.4848 13.5681 10.7083 13.7917C10.9319 14.0152 10.9319 14.3852 10.7083 14.6088L4.95019 20.3669C4.83457 20.4825 4.68811 20.5365 4.54165 20.5365Z" fill="#A4A9B2"/>
<path d="M14.2002 10.878C14.0538 10.878 13.9073 10.8241 13.7917 10.7084C13.5681 10.4849 13.5681 10.1149 13.7917 9.89136L19.5498 4.13323C19.7733 3.90969 20.1433 3.90969 20.3669 4.13323C20.5904 4.35677 20.5904 4.72677 20.3669 4.95032L14.6088 10.7084C14.4931 10.8241 14.3467 10.878 14.2002 10.878Z" fill="#A4A9B2"/>
</svg>
