<svg width="24" height="24" viewBox="0 0 24 24" fill="none" xmlns="http://www.w3.org/2000/svg">
<path d="M12.25 20.5364C7.67892 20.5364 3.9635 16.821 3.9635 12.25C3.9635 7.67892 7.67892 3.9635 12.25 3.9635C16.821 3.9635 20.5364 7.67892 20.5364 12.25C20.5364 16.821 16.821 20.5364 12.25 20.5364ZM12.25 5.11975C8.31871 5.11975 5.11975 8.31871 5.11975 12.25C5.11975 16.1812 8.31871 19.3802 12.25 19.3802C16.1812 19.3802 19.3802 16.1812 19.3802 12.25C19.3802 8.31871 16.1812 5.11975 12.25 5.11975Z" fill="#A4A9B2"/>
<path d="M10.0685 15.0095C9.92205 15.0095 9.77559 14.9556 9.65997 14.84C9.43642 14.6164 9.43642 14.2464 9.65997 14.0229L14.0229 9.65997C14.2464 9.43642 14.6164 9.43642 14.84 9.65997C15.0635 9.88351 15.0635 10.2535 14.84 10.477L10.477 14.84C10.3691 14.9556 10.215 15.0095 10.0685 15.0095Z" fill="#A4A9B2"/>
<path d="M14.4314 15.0095C14.285 15.0095 14.1385 14.9556 14.0229 14.84L9.65997 10.477C9.43642 10.2535 9.43642 9.88351 9.65997 9.65997C9.88351 9.43642 10.2535 9.43642 10.477 9.65997L14.84 14.0229C15.0635 14.2464 15.0635 14.6164 14.84 14.84C14.7243 14.9556 14.5779 15.0095 14.4314 15.0095Z" fill="#A4A9B2"/>
</svg>
