<svg width="22" height="22" viewBox="0 0 22 22" fill="none" xmlns="http://www.w3.org/2000/svg">
<path d="M13.625 4.87498C13.5099 4.87431 13.3957 4.89638 13.2891 4.93993C13.1825 4.98347 13.0855 5.04763 13.0038 5.12873L7.75377 10.3787C7.5908 10.5427 7.49933 10.7644 7.49933 10.9956C7.49933 11.2268 7.5908 11.4485 7.75377 11.6125L13.0038 16.8625C13.1712 17.0058 13.3865 17.0807 13.6067 17.0722C13.8269 17.0637 14.0358 16.9724 14.1916 16.8166C14.3475 16.6608 14.4388 16.4519 14.4473 16.2316C14.4558 16.0114 14.3809 15.7961 14.2375 15.6287L9.60877 11L14.2375 6.37122C14.3604 6.24936 14.4444 6.0938 14.4788 5.92422C14.5133 5.75463 14.4967 5.57863 14.4311 5.41848C14.3656 5.25833 14.254 5.12121 14.1105 5.02447C13.967 4.92772 13.7981 4.8757 13.625 4.87498Z" fill="#06161C"/>
</svg>
