<svg width="185" height="126" viewBox="0 0 185 126" fill="none" xmlns="http://www.w3.org/2000/svg">
<path d="M92.4328 126H92.2359C57.4439 125.976 34.495 119.633 21.3604 113.991C6.86757 107.762 1.07779 105.331 0.824171 105.065C-0.200303 103.995 -0.280392 102.168 0.64397 100.984C1.57167 99.7997 3.35699 99.0366 5.30249 99.0366C7.24799 99.0366 10.5617 100.121 24.3237 105.97C37.0445 111.377 55.5518 117.9 89.3961 117.91C123.24 117.896 141.748 112.917 154.469 107.51C168.231 101.661 177.754 96.7473 177.828 96.7232C180.164 95.9532 183.437 95.5699 184.359 96.7543C185.28 97.9386 185.199 99.7582 184.178 100.825C183.925 101.091 177.801 107.375 163.308 113.604C150.174 119.25 127.225 125.976 92.4328 126Z" fill="#443ADC"/>
<path d="M66.6315 4.22601C63.8425 5.09334 61.9645 7.76519 62.0005 10.7618L62.7597 72.3542C62.7597 72.3542 62.7597 81.3975 71.9498 80.9864C78.4708 80.6946 82.7782 68.404 84.7281 61.2887C85.2635 59.3361 87.7489 58.884 88.9116 60.52L99.2086 75.0138C101.362 78.0433 104.874 79.8272 108.511 79.4984C112.506 79.1367 117.101 76.2593 119.499 66.1884C124.294 46.0426 122.695 2.47081 110.309 0.415533C97.922 -1.63974 96.7232 4.11503 97.1228 13.5693C97.5224 23.0236 101.119 39.4657 96.7232 34.9441C92.328 30.4225 84.3365 3.29292 73.9477 3.29292C70.7431 3.29292 68.3737 3.68342 66.6315 4.22601Z" fill="#443ADC"/>
</svg>
